<?xml version="1.0" standalone="no"?>
 <!DOCTYPE svg PUBLIC "-//W3C//DTD SVG 1.1//EN" 
 "http://www.w3.org/Graphics/SVG/1.1/DTD/svg11.dtd"> 
<svg
  xmlns:svg="http://www.w3.org/2000/svg"
  xmlns="http://www.w3.org/2000/svg"
  xmlns:xlink="http://www.w3.org/1999/xlink"
  version="1.1"
  width="29.700220cm" height="21.000720cm" viewBox="0 0 116930 82680">
<title>SVG Picture created as Ensto_module-F_SilkS.svg date 2020/08/04 11:19:55 </title>
  <desc>Picture generated by PCBNEW </desc>
<g style="fill:#000000; fill-opacity:1;stroke:#000000; stroke-opacity:1;
stroke-linecap:round; stroke-linejoin:round;"
 transform="translate(0 0) scale(1 1)">
</g>
<g style="fill:#000000; fill-opacity:0.0; 
stroke:#000000; stroke-width:-0.000393701; stroke-opacity:1; 
stroke-linecap:round; stroke-linejoin:round;">
</g>
<g style="fill:#000000; fill-opacity:0.0; 
stroke:#000000; stroke-width:47.2441; stroke-opacity:1; 
stroke-linecap:round; stroke-linejoin:round;">
<path d="M34918 64777
L34918 63422
" />
<path d="M34918 63422
L31281 63422
" />
<path d="M31281 63422
L31281 64777
" />
<path d="M31281 64777
L34918 64777
" />
<path d="M35690 64100
L34918 64100
" />
<path d="M30509 64100
L31281 64100
" />
<path d="M31281 61122
L31281 62477
" />
<path d="M31281 62477
L34918 62477
" />
<path d="M34918 62477
L34918 61122
" />
<path d="M34918 61122
L31281 61122
" />
<path d="M30509 61800
L31281 61800
" />
<path d="M35690 61800
L34918 61800
" />
<path d="M32977 54981
L31622 54981
" />
<path d="M31622 54981
L31622 58618
" />
<path d="M31622 58618
L32977 58618
" />
<path d="M32977 58618
L32977 54981
" />
<path d="M32300 54209
L32300 54981
" />
<path d="M32300 59390
L32300 58618
" />
<path d="M25222 54418
L26577 54418
" />
<path d="M26577 54418
L26577 50781
" />
<path d="M26577 50781
L25222 50781
" />
<path d="M25222 50781
L25222 54418
" />
<path d="M25900 55190
L25900 54418
" />
<path d="M25900 50009
L25900 50781
" />
<path d="M25322 64418
L26677 64418
" />
<path d="M26677 64418
L26677 60781
" />
<path d="M26677 60781
L25322 60781
" />
<path d="M25322 60781
L25322 64418
" />
<path d="M26000 65190
L26000 64418
" />
<path d="M26000 60009
L26000 60781
" />
<path d="M28877 60781
L27522 60781
" />
<path d="M27522 60781
L27522 64418
" />
<path d="M27522 64418
L28877 64418
" />
<path d="M28877 64418
L28877 60781
" />
<path d="M28200 60009
L28200 60781
" />
<path d="M28200 65190
L28200 64418
" />
<path d="M29022 54518
L30377 54518
" />
<path d="M30377 54518
L30377 50881
" />
<path d="M30377 50881
L29022 50881
" />
<path d="M29022 50881
L29022 54518
" />
<path d="M29700 55290
L29700 54518
" />
<path d="M29700 50109
L29700 50881
" />
<path d="M35477 54981
L34122 54981
" />
<path d="M34122 54981
L34122 58618
" />
<path d="M34122 58618
L35477 58618
" />
<path d="M35477 58618
L35477 54981
" />
<path d="M34800 54209
L34800 54981
" />
<path d="M34800 59390
L34800 58618
" />
<path d="M33023.8 52723.8 A1023.62 1023.62 0.0 0 0 32300 50976.4" />
<path d="M32300 50976.4 A1023.62 1023.62 0.0 0 0 31576.2 52723.8" />
<path d="M31591 52728
L33008 52728
" />
<path d="M22476 59023
L23523 59023
" />
<path d="M22476 52000
L22476 59023
" />
<path d="M23523 52000
L23523 59023
" />
<path d="M22476 52000
L23523 52000
" />
<path d="M22476 51500
L22476 50976
" />
<path d="M22476 50976
L23000 50976
" />
<path d="M21712 43910
L21393 43910
" />
<path d="M21393 43910
L21393 38784
" />
<path d="M21393 38784
L23326 38784
" />
<path d="M24940 43910
L25259 43910
" />
<path d="M25259 43910
L25259 38784
" />
<path d="M25259 38784
L23326 38784
" />
<path d="M22381 45130
L22381 45634
" />
<path d="M22618 45130
L22618 45634
" />
<path d="M24035 45130
L24035 45634
" />
<path d="M24271 45130
L24271 45634
" />
<path d="M23133 43906
L23519 43906
" />
<path d="M21712 44300
L21476 44418
" />
<path d="M21476 44418
L21476 44181
" />
<path d="M21476 44181
L21712 44300
" />
<path d="M44423 47476
L43376 47476
" />
<path d="M44423 48500
L44423 47476
" />
<path d="M43376 48500
L43376 47476
" />
<path d="M44423 48500
L43376 48500
" />
<path d="M44423 49000
L44423 49523
" />
<path d="M44423 49523
L43900 49523
" />
<path d="M30462 43910
L30143 43910
" />
<path d="M30143 43910
L30143 38784
" />
<path d="M30143 38784
L32076 38784
" />
<path d="M33690 43910
L34009 43910
" />
<path d="M34009 43910
L34009 38784
" />
<path d="M34009 38784
L32076 38784
" />
<path d="M31131 45130
L31131 45634
" />
<path d="M31368 45130
L31368 45634
" />
<path d="M32785 45130
L32785 45634
" />
<path d="M33021 45130
L33021 45634
" />
<path d="M31883 43906
L32269 43906
" />
<path d="M30462 44300
L30226 44418
" />
<path d="M30226 44418
L30226 44181
" />
<path d="M30226 44181
L30462 44300
" />
<path d="M42523 47476
L41476 47476
" />
<path d="M42523 56500
L42523 47476
" />
<path d="M41476 56500
L41476 47476
" />
<path d="M42523 56500
L41476 56500
" />
<path d="M42523 57000
L42523 57523
" />
<path d="M42523 57523
L42000 57523
" />
<path d="M42523 58076
L41476 58076
" />
<path d="M42523 65100
L42523 58076
" />
<path d="M41476 65100
L41476 58076
" />
<path d="M42523 65100
L41476 65100
" />
<path d="M42523 65600
L42523 66123
" />
<path d="M42523 66123
L42000 66123
" />
<path d="M34076.2 50976.2 A1023.62 1023.62 0.0 0 0 34800 52723.6" />
<path d="M34800 52723.6 A1023.62 1023.62 0.0 0 0 35523.8 50976.2" />
<path d="M35508 50971
L34091 50971
" />
<path d="M22476 66023
L23523 66023
" />
<path d="M22476 61000
L22476 66023
" />
<path d="M23523 61000
L23523 66023
" />
<path d="M22476 61000
L23523 61000
" />
<path d="M22476 60500
L22476 59976
" />
<path d="M22476 59976
L23000 59976
" />
<path d="M44274 44053
L44077 44250
" />
<path d="M44274 44446
L44274 44053
" />
<path d="M44077 44250
L44274 44446
" />
<path d="M44005 38706
L37894 38706
" />
<path d="M37894 45777
L37894 38706
" />
<path d="M37894 45777
L44005 45777
" />
<path d="M44005 45777
L44005 38706
" />
<path d="M32925 69596
L33122 69400
" />
<path d="M32925 69203
L32925 69596
" />
<path d="M33122 69400
L32925 69203
" />
<path d="M33194 74943
L39305 74943
" />
<path d="M39305 67872
L39305 74943
" />
<path d="M39305 67872
L33194 67872
" />
<path d="M33194 67872
L33194 74943
" />
</g>
<g style="fill:#000000; fill-opacity:0.0; 
stroke:#000000; stroke-width:59.0551; stroke-opacity:1; 
stroke-linecap:round; stroke-linejoin:round;">
<text x="33100" y="65367.7"
textLength="1799.78" font-size="524.934" lengthAdjust="spacingAndGlyphs"
text-anchor="middle" opacity="0">220_1</text>
<path d="M32275 64992
L32293 64974
L32331 64955
L32425 64955
L32462 64974
L32481 64992
L32500 65030
L32500 65067
L32481 65123
L32256 65348
L32500 65348
" />
<path d="M32650 64992
L32668 64974
L32706 64955
L32800 64955
L32837 64974
L32856 64992
L32875 65030
L32875 65067
L32856 65123
L32631 65348
L32875 65348
" />
<path d="M33118 64955
L33156 64955
L33193 64974
L33212 64992
L33231 65030
L33249 65105
L33249 65198
L33231 65273
L33212 65311
L33193 65330
L33156 65348
L33118 65348
L33081 65330
L33062 65311
L33043 65273
L33025 65198
L33025 65105
L33043 65030
L33062 64992
L33081 64974
L33118 64955
" />
<path d="M33324 65386
L33624 65386
" />
<path d="M33924 65348
L33699 65348
" />
<path d="M33812 65348
L33812 64955
L33774 65011
L33737 65049
L33699 65067
" />
<text x="33100" y="60926"
textLength="1876.55" font-size="524.934" lengthAdjust="spacingAndGlyphs"
text-anchor="middle" opacity="0">220_2</text>
<path d="M32275 60551
L32293 60532
L32331 60513
L32425 60513
L32462 60532
L32481 60551
L32500 60588
L32500 60626
L32481 60682
L32256 60907
L32500 60907
" />
<path d="M32650 60551
L32668 60532
L32706 60513
L32800 60513
L32837 60532
L32856 60551
L32875 60588
L32875 60626
L32856 60682
L32631 60907
L32875 60907
" />
<path d="M33118 60513
L33156 60513
L33193 60532
L33212 60551
L33231 60588
L33249 60663
L33249 60757
L33231 60832
L33212 60869
L33193 60888
L33156 60907
L33118 60907
L33081 60888
L33062 60869
L33043 60832
L33025 60757
L33025 60663
L33043 60588
L33062 60551
L33081 60532
L33118 60513
" />
<path d="M33324 60944
L33624 60944
" />
<path d="M33699 60551
L33718 60532
L33756 60513
L33849 60513
L33887 60532
L33906 60551
L33924 60588
L33924 60626
L33906 60682
L33681 60907
L33924 60907
" />
<g transform="rotate(-90 33370.9 56800)">
<text x="33370.9" y="56996.9"
textLength="2195.26" font-size="524.934" lengthAdjust="spacingAndGlyphs"
text-anchor="middle" opacity="0">220k_2</text>
</g>
<path d="M33192 57784
L33174 57765
L33155 57728
L33155 57634
L33174 57596
L33192 57578
L33230 57559
L33267 57559
L33323 57578
L33548 57802
L33548 57559
" />
<path d="M33192 57409
L33174 57390
L33155 57353
L33155 57259
L33174 57221
L33192 57203
L33230 57184
L33267 57184
L33323 57203
L33548 57428
L33548 57184
" />
<path d="M33155 56940
L33155 56903
L33174 56865
L33192 56846
L33230 56828
L33305 56809
L33398 56809
L33473 56828
L33511 56846
L33530 56865
L33548 56903
L33548 56940
L33530 56978
L33511 56996
L33473 57015
L33398 57034
L33305 57034
L33230 57015
L33192 56996
L33174 56978
L33155 56940
" />
<path d="M33548 56640
L33155 56640
" />
<path d="M33398 56603
L33548 56490
" />
<path d="M33286 56490
L33436 56640
" />
<path d="M33586 56415
L33586 56115
" />
<path d="M33192 56040
L33174 56021
L33155 55984
L33155 55890
L33174 55853
L33192 55834
L33230 55815
L33267 55815
L33323 55834
L33548 56059
L33548 55815
" />
<g transform="rotate(-90 24829.1 52600)">
<text x="24829.1" y="52796.9"
textLength="1520.34" font-size="524.934" lengthAdjust="spacingAndGlyphs"
text-anchor="middle" opacity="0">10k1</text>
</g>
<path d="M25007 53021
L25007 53246
" />
<path d="M25007 53134
L24613 53134
L24669 53171
L24707 53209
L24726 53246
" />
<path d="M24613 52778
L24613 52740
L24632 52703
L24651 52684
L24688 52665
L24763 52646
L24857 52646
L24932 52665
L24969 52684
L24988 52703
L25007 52740
L25007 52778
L24988 52815
L24969 52834
L24932 52853
L24857 52871
L24763 52871
L24688 52853
L24651 52834
L24632 52815
L24613 52778
" />
<path d="M25007 52478
L24613 52478
" />
<path d="M24857 52440
L25007 52328
" />
<path d="M24744 52328
L24894 52478
" />
<path d="M25007 51953
L25007 52178
" />
<path d="M25007 52065
L24613 52065
L24669 52103
L24707 52140
L24726 52178
" />
<g transform="rotate(-90 24929.1 62600)">
<text x="24929.1" y="62796.9"
textLength="1145.39" font-size="524.934" lengthAdjust="spacingAndGlyphs"
text-anchor="middle" opacity="0">1k1</text>
</g>
<path d="M25107 62834
L25107 63059
" />
<path d="M25107 62946
L24713 62946
L24769 62984
L24807 63021
L24826 63059
" />
<path d="M25107 62665
L24713 62665
" />
<path d="M24957 62628
L25107 62515
" />
<path d="M24844 62515
L24994 62665
" />
<path d="M25107 62140
L25107 62365
" />
<path d="M25107 62253
L24713 62253
L24769 62290
L24807 62328
L24826 62365
" />
<g transform="rotate(-90 29270.9 62600)">
<text x="29270.9" y="62796.9"
textLength="1520.34" font-size="524.934" lengthAdjust="spacingAndGlyphs"
text-anchor="middle" opacity="0">56k1</text>
</g>
<path d="M29055 63040
L29055 63228
L29242 63246
L29223 63228
L29205 63190
L29205 63096
L29223 63059
L29242 63040
L29280 63021
L29373 63021
L29411 63040
L29430 63059
L29448 63096
L29448 63190
L29430 63228
L29411 63246
" />
<path d="M29055 62684
L29055 62759
L29074 62796
L29092 62815
L29149 62853
L29223 62871
L29373 62871
L29411 62853
L29430 62834
L29448 62796
L29448 62721
L29430 62684
L29411 62665
L29373 62646
L29280 62646
L29242 62665
L29223 62684
L29205 62721
L29205 62796
L29223 62834
L29242 62853
L29280 62871
" />
<path d="M29448 62478
L29055 62478
" />
<path d="M29298 62440
L29448 62328
" />
<path d="M29186 62328
L29336 62478
" />
<path d="M29448 61953
L29448 62178
" />
<path d="M29448 62065
L29055 62065
L29111 62103
L29149 62140
L29167 62178
" />
<g transform="rotate(-90 28629.1 52700)">
<text x="28629.1" y="52896.9"
textLength="1520.34" font-size="524.934" lengthAdjust="spacingAndGlyphs"
text-anchor="middle" opacity="0">22k1</text>
</g>
<path d="M28451 53346
L28432 53328
L28413 53290
L28413 53196
L28432 53159
L28451 53140
L28488 53121
L28526 53121
L28582 53140
L28807 53365
L28807 53121
" />
<path d="M28451 52971
L28432 52953
L28413 52915
L28413 52821
L28432 52784
L28451 52765
L28488 52746
L28526 52746
L28582 52765
L28807 52990
L28807 52746
" />
<path d="M28807 52578
L28413 52578
" />
<path d="M28657 52540
L28807 52428
" />
<path d="M28544 52428
L28694 52578
" />
<path d="M28807 52053
L28807 52278
" />
<path d="M28807 52165
L28413 52165
L28469 52203
L28507 52240
L28526 52278
" />
<g transform="rotate(-90 35870.9 56800)">
<text x="35870.9" y="56996.9"
textLength="2195.26" font-size="524.934" lengthAdjust="spacingAndGlyphs"
text-anchor="middle" opacity="0">220k_1</text>
</g>
<path d="M35692 57784
L35674 57765
L35655 57728
L35655 57634
L35674 57596
L35692 57578
L35730 57559
L35767 57559
L35823 57578
L36048 57802
L36048 57559
" />
<path d="M35692 57409
L35674 57390
L35655 57353
L35655 57259
L35674 57221
L35692 57203
L35730 57184
L35767 57184
L35823 57203
L36048 57428
L36048 57184
" />
<path d="M35655 56940
L35655 56903
L35674 56865
L35692 56846
L35730 56828
L35805 56809
L35898 56809
L35973 56828
L36011 56846
L36030 56865
L36048 56903
L36048 56940
L36030 56978
L36011 56996
L35973 57015
L35898 57034
L35805 57034
L35730 57015
L35692 56996
L35674 56978
L35655 56940
" />
<path d="M36048 56640
L35655 56640
" />
<path d="M35898 56603
L36048 56490
" />
<path d="M35786 56490
L35936 56640
" />
<path d="M36086 56415
L36086 56115
" />
<path d="M36048 55815
L36048 56040
" />
<path d="M36048 55928
L35655 55928
L35711 55965
L35749 56003
L35767 56040
" />
<text x="32300" y="50795.3"
textLength="4351.24" font-size="524.934" lengthAdjust="spacingAndGlyphs"
text-anchor="middle" opacity="0">Up_transistor1</text>
<path d="M30256 50382
L30256 50701
L30275 50739
L30294 50757
L30331 50776
L30406 50776
L30443 50757
L30462 50739
L30481 50701
L30481 50382
" />
<path d="M30668 50514
L30668 50907
" />
<path d="M30668 50532
L30706 50514
L30781 50514
L30818 50532
L30837 50551
L30856 50589
L30856 50701
L30837 50739
L30818 50757
L30781 50776
L30706 50776
L30668 50757
" />
<path d="M30931 50814
L31231 50814
" />
<path d="M31268 50514
L31418 50514
" />
<path d="M31325 50382
L31325 50720
L31343 50757
L31381 50776
L31418 50776
" />
<path d="M31550 50776
L31550 50514
" />
<path d="M31550 50589
L31568 50551
L31587 50532
L31625 50514
L31662 50514
" />
<path d="M31962 50776
L31962 50570
L31943 50532
L31906 50514
L31831 50514
L31793 50532
" />
<path d="M31962 50757
L31925 50776
L31831 50776
L31793 50757
L31775 50720
L31775 50682
L31793 50645
L31831 50626
L31925 50626
L31962 50607
" />
<path d="M32150 50514
L32150 50776
" />
<path d="M32150 50551
L32168 50532
L32206 50514
L32262 50514
L32300 50532
L32318 50570
L32318 50776
" />
<path d="M32487 50757
L32524 50776
L32599 50776
L32637 50757
L32656 50720
L32656 50701
L32637 50664
L32599 50645
L32543 50645
L32506 50626
L32487 50589
L32487 50570
L32506 50532
L32543 50514
L32599 50514
L32637 50532
" />
<path d="M32824 50776
L32824 50514
" />
<path d="M32824 50382
L32806 50401
L32824 50420
L32843 50401
L32824 50382
L32824 50420
" />
<path d="M32993 50757
L33031 50776
L33106 50776
L33143 50757
L33162 50720
L33162 50701
L33143 50664
L33106 50645
L33049 50645
L33012 50626
L32993 50589
L32993 50570
L33012 50532
L33049 50514
L33106 50514
L33143 50532
" />
<path d="M33274 50514
L33424 50514
" />
<path d="M33331 50382
L33331 50720
L33349 50757
L33387 50776
L33424 50776
" />
<path d="M33612 50776
L33574 50757
L33556 50739
L33537 50701
L33537 50589
L33556 50551
L33574 50532
L33612 50514
L33668 50514
L33706 50532
L33724 50551
L33743 50589
L33743 50701
L33724 50739
L33706 50757
L33668 50776
L33612 50776
" />
<path d="M33912 50776
L33912 50514
" />
<path d="M33912 50589
L33931 50551
L33949 50532
L33987 50514
L34024 50514
" />
<path d="M34362 50776
L34137 50776
" />
<path d="M34249 50776
L34249 50382
L34212 50439
L34174 50476
L34137 50495
" />
<text x="23000" y="50779.5"
textLength="4238.75" font-size="524.934" lengthAdjust="spacingAndGlyphs"
text-anchor="middle" opacity="0">Support_pins1</text>
<path d="M20994 50742
L21050 50760
L21143 50760
L21181 50742
L21200 50723
L21218 50685
L21218 50648
L21200 50610
L21181 50592
L21143 50573
L21068 50554
L21031 50535
L21012 50517
L20994 50479
L20994 50442
L21012 50404
L21031 50385
L21068 50367
L21162 50367
L21218 50385
" />
<path d="M21556 50498
L21556 50760
" />
<path d="M21387 50498
L21387 50704
L21406 50742
L21443 50760
L21500 50760
L21537 50742
L21556 50723
" />
<path d="M21743 50498
L21743 50892
" />
<path d="M21743 50517
L21781 50498
L21856 50498
L21893 50517
L21912 50535
L21931 50573
L21931 50685
L21912 50723
L21893 50742
L21856 50760
L21781 50760
L21743 50742
" />
<path d="M22100 50498
L22100 50892
" />
<path d="M22100 50517
L22137 50498
L22212 50498
L22250 50517
L22268 50535
L22287 50573
L22287 50685
L22268 50723
L22250 50742
L22212 50760
L22137 50760
L22100 50742
" />
<path d="M22512 50760
L22475 50742
L22456 50723
L22437 50685
L22437 50573
L22456 50535
L22475 50517
L22512 50498
L22568 50498
L22606 50517
L22625 50535
L22643 50573
L22643 50685
L22625 50723
L22606 50742
L22568 50760
L22512 50760
" />
<path d="M22812 50760
L22812 50498
" />
<path d="M22812 50573
L22831 50535
L22850 50517
L22887 50498
L22925 50498
" />
<path d="M23000 50498
L23149 50498
" />
<path d="M23056 50367
L23056 50704
L23074 50742
L23112 50760
L23149 50760
" />
<path d="M23187 50798
L23487 50798
" />
<path d="M23581 50498
L23581 50892
" />
<path d="M23581 50517
L23618 50498
L23693 50498
L23731 50517
L23749 50535
L23768 50573
L23768 50685
L23749 50723
L23731 50742
L23693 50760
L23618 50760
L23581 50742
" />
<path d="M23937 50760
L23937 50498
" />
<path d="M23937 50367
L23918 50385
L23937 50404
L23956 50385
L23937 50367
L23937 50404
" />
<path d="M24124 50498
L24124 50760
" />
<path d="M24124 50535
L24143 50517
L24181 50498
L24237 50498
L24274 50517
L24293 50554
L24293 50760
" />
<path d="M24462 50742
L24499 50760
L24574 50760
L24612 50742
L24631 50704
L24631 50685
L24612 50648
L24574 50629
L24518 50629
L24481 50610
L24462 50573
L24462 50554
L24481 50517
L24518 50498
L24574 50498
L24612 50517
" />
<path d="M25005 50760
L24781 50760
" />
<path d="M24893 50760
L24893 50367
L24856 50423
L24818 50460
L24781 50479
" />
<text x="23326.8" y="38552"
textLength="4276.25" font-size="524.934" lengthAdjust="spacingAndGlyphs"
text-anchor="middle" opacity="0">Minifit_motor1</text>
<path d="M21320 38533
L21320 38139
L21452 38420
L21583 38139
L21583 38533
" />
<path d="M21770 38533
L21770 38270
" />
<path d="M21770 38139
L21751 38158
L21770 38177
L21789 38158
L21770 38139
L21770 38177
" />
<path d="M21958 38270
L21958 38533
" />
<path d="M21958 38308
L21976 38289
L22014 38270
L22070 38270
L22108 38289
L22126 38326
L22126 38533
" />
<path d="M22314 38533
L22314 38270
" />
<path d="M22314 38139
L22295 38158
L22314 38177
L22333 38158
L22314 38139
L22314 38177
" />
<path d="M22445 38270
L22595 38270
" />
<path d="M22501 38533
L22501 38195
L22520 38158
L22558 38139
L22595 38139
" />
<path d="M22726 38533
L22726 38270
" />
<path d="M22726 38139
L22708 38158
L22726 38177
L22745 38158
L22726 38139
L22726 38177
" />
<path d="M22858 38270
L23008 38270
" />
<path d="M22914 38139
L22914 38476
L22933 38514
L22970 38533
L23008 38533
" />
<path d="M23045 38570
L23345 38570
" />
<path d="M23439 38533
L23439 38270
" />
<path d="M23439 38308
L23458 38289
L23495 38270
L23551 38270
L23589 38289
L23607 38326
L23607 38533
" />
<path d="M23607 38326
L23626 38289
L23664 38270
L23720 38270
L23757 38289
L23776 38326
L23776 38533
" />
<path d="M24020 38533
L23982 38514
L23964 38495
L23945 38458
L23945 38345
L23964 38308
L23982 38289
L24020 38270
L24076 38270
L24114 38289
L24132 38308
L24151 38345
L24151 38458
L24132 38495
L24114 38514
L24076 38533
L24020 38533
" />
<path d="M24264 38270
L24414 38270
" />
<path d="M24320 38139
L24320 38476
L24339 38514
L24376 38533
L24414 38533
" />
<path d="M24601 38533
L24564 38514
L24545 38495
L24526 38458
L24526 38345
L24545 38308
L24564 38289
L24601 38270
L24657 38270
L24695 38289
L24714 38308
L24732 38345
L24732 38458
L24714 38495
L24695 38514
L24657 38533
L24601 38533
" />
<path d="M24901 38533
L24901 38270
" />
<path d="M24901 38345
L24920 38308
L24939 38289
L24976 38270
L25014 38270
" />
<path d="M25351 38533
L25126 38533
" />
<path d="M25239 38533
L25239 38139
L25201 38195
L25164 38233
L25126 38252
" />
<text x="43900" y="50114.2"
textLength="1126.64" font-size="524.934" lengthAdjust="spacingAndGlyphs"
text-anchor="middle" opacity="0">J11</text>
<path d="M43581 49701
L43581 49982
L43562 50039
L43525 50076
L43468 50095
L43431 50095
" />
<path d="M43974 50095
L43750 50095
" />
<path d="M43862 50095
L43862 49701
L43825 49757
L43787 49795
L43750 49814
" />
<path d="M44349 50095
L44124 50095
" />
<path d="M44237 50095
L44237 49701
L44199 49757
L44162 49795
L44124 49814
" />
<text x="32076.8" y="38552"
textLength="751.687" font-size="524.934" lengthAdjust="spacingAndGlyphs"
text-anchor="middle" opacity="0">J8</text>
<path d="M31945 38139
L31945 38420
L31926 38476
L31889 38514
L31833 38533
L31795 38533
" />
<path d="M32189 38308
L32151 38289
L32133 38270
L32114 38233
L32114 38214
L32133 38177
L32151 38158
L32189 38139
L32264 38139
L32301 38158
L32320 38177
L32339 38214
L32339 38233
L32320 38270
L32301 38289
L32264 38308
L32189 38308
L32151 38326
L32133 38345
L32114 38383
L32114 38458
L32133 38495
L32151 38514
L32189 38533
L32264 38533
L32301 38514
L32320 38495
L32339 38458
L32339 38383
L32320 38345
L32301 38326
L32264 38308
" />
<text x="42000" y="58114.2"
textLength="3620.08" font-size="524.934" lengthAdjust="spacingAndGlyphs"
text-anchor="middle" opacity="0">GPIO_extra1</text>
<path d="M40528 57720
L40490 57701
L40434 57701
L40378 57720
L40340 57757
L40322 57795
L40303 57870
L40303 57926
L40322 58001
L40340 58039
L40378 58076
L40434 58095
L40472 58095
L40528 58076
L40547 58057
L40547 57926
L40472 57926
" />
<path d="M40715 58095
L40715 57701
L40865 57701
L40903 57720
L40922 57739
L40940 57776
L40940 57832
L40922 57870
L40903 57889
L40865 57907
L40715 57907
" />
<path d="M41109 58095
L41109 57701
" />
<path d="M41371 57701
L41446 57701
L41484 57720
L41521 57757
L41540 57832
L41540 57964
L41521 58039
L41484 58076
L41446 58095
L41371 58095
L41334 58076
L41296 58039
L41278 57964
L41278 57832
L41296 57757
L41334 57720
L41371 57701
" />
<path d="M41615 58132
L41915 58132
" />
<path d="M42159 58076
L42121 58095
L42046 58095
L42009 58076
L41990 58039
L41990 57889
L42009 57851
L42046 57832
L42121 57832
L42159 57851
L42178 57889
L42178 57926
L41990 57964
" />
<path d="M42309 58095
L42515 57832
" />
<path d="M42309 57832
L42515 58095
" />
<path d="M42609 57832
L42759 57832
" />
<path d="M42665 57701
L42665 58039
L42684 58076
L42721 58095
L42759 58095
" />
<path d="M42890 58095
L42890 57832
" />
<path d="M42890 57907
L42909 57870
L42928 57851
L42965 57832
L43002 57832
" />
<path d="M43302 58095
L43302 57889
L43284 57851
L43246 57832
L43171 57832
L43134 57851
" />
<path d="M43302 58076
L43265 58095
L43171 58095
L43134 58076
L43115 58039
L43115 58001
L43134 57964
L43171 57945
L43265 57945
L43302 57926
" />
<path d="M43696 58095
L43471 58095
" />
<path d="M43584 58095
L43584 57701
L43546 57757
L43509 57795
L43471 57814
" />
<text x="42000" y="66714.2"
textLength="4013.78" font-size="524.934" lengthAdjust="spacingAndGlyphs"
text-anchor="middle" opacity="0">GPIO_button1</text>
<path d="M40331 66320
L40293 66301
L40237 66301
L40181 66320
L40143 66357
L40125 66395
L40106 66470
L40106 66526
L40125 66601
L40143 66639
L40181 66676
L40237 66695
L40275 66695
L40331 66676
L40350 66657
L40350 66526
L40275 66526
" />
<path d="M40518 66695
L40518 66301
L40668 66301
L40706 66320
L40725 66339
L40743 66376
L40743 66432
L40725 66470
L40706 66489
L40668 66507
L40518 66507
" />
<path d="M40912 66695
L40912 66301
" />
<path d="M41175 66301
L41250 66301
L41287 66320
L41325 66357
L41343 66432
L41343 66564
L41325 66639
L41287 66676
L41250 66695
L41175 66695
L41137 66676
L41100 66639
L41081 66564
L41081 66432
L41100 66357
L41137 66320
L41175 66301
" />
<path d="M41418 66732
L41718 66732
" />
<path d="M41812 66695
L41812 66301
" />
<path d="M41812 66451
L41850 66432
L41925 66432
L41962 66451
L41981 66470
L42000 66507
L42000 66620
L41981 66657
L41962 66676
L41925 66695
L41850 66695
L41812 66676
" />
<path d="M42337 66432
L42337 66695
" />
<path d="M42168 66432
L42168 66639
L42187 66676
L42224 66695
L42281 66695
L42318 66676
L42337 66657
" />
<path d="M42468 66432
L42618 66432
" />
<path d="M42524 66301
L42524 66639
L42543 66676
L42581 66695
L42618 66695
" />
<path d="M42693 66432
L42843 66432
" />
<path d="M42749 66301
L42749 66639
L42768 66676
L42806 66695
L42843 66695
" />
<path d="M43031 66695
L42993 66676
L42974 66657
L42956 66620
L42956 66507
L42974 66470
L42993 66451
L43031 66432
L43087 66432
L43124 66451
L43143 66470
L43162 66507
L43162 66620
L43143 66657
L43124 66676
L43087 66695
L43031 66695
" />
<path d="M43331 66432
L43331 66695
" />
<path d="M43331 66470
L43349 66451
L43387 66432
L43443 66432
L43481 66451
L43499 66489
L43499 66695
" />
<path d="M43893 66695
L43668 66695
" />
<path d="M43781 66695
L43781 66301
L43743 66357
L43706 66395
L43668 66414
" />
<text x="34800" y="53298.4"
textLength="5101.14" font-size="524.934" lengthAdjust="spacingAndGlyphs"
text-anchor="middle" opacity="0">Down_transistor1</text>
<path d="M32381 53279
L32381 52885
L32475 52885
L32531 52904
L32569 52942
L32587 52979
L32606 53054
L32606 53110
L32587 53185
L32569 53223
L32531 53260
L32475 53279
L32381 53279
" />
<path d="M32831 53279
L32794 53260
L32775 53242
L32756 53204
L32756 53092
L32775 53054
L32794 53035
L32831 53017
L32887 53017
L32925 53035
L32943 53054
L32962 53092
L32962 53204
L32943 53242
L32925 53260
L32887 53279
L32831 53279
" />
<path d="M33093 53017
L33168 53279
L33243 53092
L33318 53279
L33393 53017
" />
<path d="M33543 53017
L33543 53279
" />
<path d="M33543 53054
L33562 53035
L33600 53017
L33656 53017
L33693 53035
L33712 53073
L33712 53279
" />
<path d="M33806 53317
L34106 53317
" />
<path d="M34143 53017
L34293 53017
" />
<path d="M34200 52885
L34200 53223
L34218 53260
L34256 53279
L34293 53279
" />
<path d="M34425 53279
L34425 53017
" />
<path d="M34425 53092
L34443 53054
L34462 53035
L34500 53017
L34537 53017
" />
<path d="M34837 53279
L34837 53073
L34818 53035
L34781 53017
L34706 53017
L34668 53035
" />
<path d="M34837 53260
L34800 53279
L34706 53279
L34668 53260
L34650 53223
L34650 53185
L34668 53148
L34706 53129
L34800 53129
L34837 53110
" />
<path d="M35024 53017
L35024 53279
" />
<path d="M35024 53054
L35043 53035
L35081 53017
L35137 53017
L35174 53035
L35193 53073
L35193 53279
" />
<path d="M35362 53260
L35399 53279
L35474 53279
L35512 53260
L35531 53223
L35531 53204
L35512 53167
L35474 53148
L35418 53148
L35381 53129
L35362 53092
L35362 53073
L35381 53035
L35418 53017
L35474 53017
L35512 53035
" />
<path d="M35699 53279
L35699 53017
" />
<path d="M35699 52885
L35681 52904
L35699 52923
L35718 52904
L35699 52885
L35699 52923
" />
<path d="M35868 53260
L35906 53279
L35981 53279
L36018 53260
L36037 53223
L36037 53204
L36018 53167
L35981 53148
L35924 53148
L35887 53129
L35868 53092
L35868 53073
L35887 53035
L35924 53017
L35981 53017
L36018 53035
" />
<path d="M36149 53017
L36299 53017
" />
<path d="M36206 52885
L36206 53223
L36224 53260
L36262 53279
L36299 53279
" />
<path d="M36487 53279
L36449 53260
L36431 53242
L36412 53204
L36412 53092
L36431 53054
L36449 53035
L36487 53017
L36543 53017
L36581 53035
L36599 53054
L36618 53092
L36618 53204
L36599 53242
L36581 53260
L36543 53279
L36487 53279
" />
<path d="M36787 53279
L36787 53017
" />
<path d="M36787 53092
L36805 53054
L36824 53035
L36862 53017
L36899 53017
" />
<path d="M37237 53279
L37012 53279
" />
<path d="M37124 53279
L37124 52885
L37087 52942
L37049 52979
L37012 52998
" />
<text x="23000" y="61696.9"
textLength="3938.79" font-size="524.934" lengthAdjust="spacingAndGlyphs"
text-anchor="middle" opacity="0">Analog_pins1</text>
<path d="M21143 61565
L21331 61565
" />
<path d="M21106 61678
L21237 61284
L21368 61678
" />
<path d="M21500 61415
L21500 61678
" />
<path d="M21500 61453
L21518 61434
L21556 61415
L21612 61415
L21650 61434
L21668 61471
L21668 61678
" />
<path d="M22025 61678
L22025 61471
L22006 61434
L21968 61415
L21893 61415
L21856 61434
" />
<path d="M22025 61659
L21987 61678
L21893 61678
L21856 61659
L21837 61621
L21837 61584
L21856 61546
L21893 61528
L21987 61528
L22025 61509
" />
<path d="M22268 61678
L22231 61659
L22212 61621
L22212 61284
" />
<path d="M22475 61678
L22437 61659
L22418 61640
L22400 61603
L22400 61490
L22418 61453
L22437 61434
L22475 61415
L22531 61415
L22568 61434
L22587 61453
L22606 61490
L22606 61603
L22587 61640
L22568 61659
L22531 61678
L22475 61678
" />
<path d="M22943 61415
L22943 61734
L22925 61771
L22906 61790
L22868 61809
L22812 61809
L22775 61790
" />
<path d="M22943 61659
L22906 61678
L22831 61678
L22793 61659
L22775 61640
L22756 61603
L22756 61490
L22775 61453
L22793 61434
L22831 61415
L22906 61415
L22943 61434
" />
<path d="M23037 61715
L23337 61715
" />
<path d="M23431 61415
L23431 61809
" />
<path d="M23431 61434
L23468 61415
L23543 61415
L23581 61434
L23599 61453
L23618 61490
L23618 61603
L23599 61640
L23581 61659
L23543 61678
L23468 61678
L23431 61659
" />
<path d="M23787 61678
L23787 61415
" />
<path d="M23787 61284
L23768 61303
L23787 61321
L23806 61303
L23787 61284
L23787 61321
" />
<path d="M23974 61415
L23974 61678
" />
<path d="M23974 61453
L23993 61434
L24031 61415
L24087 61415
L24124 61434
L24143 61471
L24143 61678
" />
<path d="M24312 61659
L24349 61678
L24424 61678
L24462 61659
L24481 61621
L24481 61603
L24462 61565
L24424 61546
L24368 61546
L24331 61528
L24312 61490
L24312 61471
L24331 61434
L24368 61415
L24424 61415
L24462 61434
" />
<path d="M24856 61678
L24631 61678
" />
<path d="M24743 61678
L24743 61284
L24706 61340
L24668 61378
L24631 61396
" />
<text x="40950" y="46415.4"
textLength="3545.09" font-size="524.934" lengthAdjust="spacingAndGlyphs"
text-anchor="middle" opacity="0">8P8C_MCU1</text>
<path d="M39365 46171
L39328 46152
L39309 46134
L39290 46096
L39290 46077
L39309 46040
L39328 46021
L39365 46002
L39440 46002
L39478 46021
L39497 46040
L39515 46077
L39515 46096
L39497 46134
L39478 46152
L39440 46171
L39365 46171
L39328 46190
L39309 46209
L39290 46246
L39290 46321
L39309 46359
L39328 46377
L39365 46396
L39440 46396
L39478 46377
L39497 46359
L39515 46321
L39515 46246
L39497 46209
L39478 46190
L39440 46171
" />
<path d="M39684 46396
L39684 46002
L39834 46002
L39872 46021
L39890 46040
L39909 46077
L39909 46134
L39890 46171
L39872 46190
L39834 46209
L39684 46209
" />
<path d="M40134 46171
L40096 46152
L40078 46134
L40059 46096
L40059 46077
L40078 46040
L40096 46021
L40134 46002
L40209 46002
L40246 46021
L40265 46040
L40284 46077
L40284 46096
L40265 46134
L40246 46152
L40209 46171
L40134 46171
L40096 46190
L40078 46209
L40059 46246
L40059 46321
L40078 46359
L40096 46377
L40134 46396
L40209 46396
L40246 46377
L40265 46359
L40284 46321
L40284 46246
L40265 46209
L40246 46190
L40209 46171
" />
<path d="M40678 46359
L40659 46377
L40603 46396
L40565 46396
L40509 46377
L40471 46340
L40453 46302
L40434 46227
L40434 46171
L40453 46096
L40471 46059
L40509 46021
L40565 46002
L40603 46002
L40659 46021
L40678 46040
" />
<path d="M40753 46434
L41053 46434
" />
<path d="M41146 46396
L41146 46002
L41278 46284
L41409 46002
L41409 46396
" />
<path d="M41821 46359
L41803 46377
L41746 46396
L41709 46396
L41653 46377
L41615 46340
L41596 46302
L41578 46227
L41578 46171
L41596 46096
L41615 46059
L41653 46021
L41709 46002
L41746 46002
L41803 46021
L41821 46040
" />
<path d="M41990 46002
L41990 46321
L42009 46359
L42027 46377
L42065 46396
L42140 46396
L42177 46377
L42196 46359
L42215 46321
L42215 46002
" />
<path d="M42609 46396
L42384 46396
" />
<path d="M42496 46396
L42496 46002
L42459 46059
L42421 46096
L42384 46115
" />
<text x="36250" y="67628.3"
textLength="4163.76" font-size="524.934" lengthAdjust="spacingAndGlyphs"
text-anchor="middle" opacity="0">8P8C_button1</text>
<path d="M34356 67384
L34318 67365
L34300 67347
L34281 67309
L34281 67290
L34300 67253
L34318 67234
L34356 67215
L34431 67215
L34468 67234
L34487 67253
L34506 67290
L34506 67309
L34487 67347
L34468 67365
L34431 67384
L34356 67384
L34318 67403
L34300 67422
L34281 67459
L34281 67534
L34300 67572
L34318 67590
L34356 67609
L34431 67609
L34468 67590
L34487 67572
L34506 67534
L34506 67459
L34487 67422
L34468 67403
L34431 67384
" />
<path d="M34675 67609
L34675 67215
L34825 67215
L34862 67234
L34881 67253
L34900 67290
L34900 67347
L34881 67384
L34862 67403
L34825 67422
L34675 67422
" />
<path d="M35125 67384
L35087 67365
L35068 67347
L35050 67309
L35050 67290
L35068 67253
L35087 67234
L35125 67215
L35200 67215
L35237 67234
L35256 67253
L35275 67290
L35275 67309
L35256 67347
L35237 67365
L35200 67384
L35125 67384
L35087 67403
L35068 67422
L35050 67459
L35050 67534
L35068 67572
L35087 67590
L35125 67609
L35200 67609
L35237 67590
L35256 67572
L35275 67534
L35275 67459
L35256 67422
L35237 67403
L35200 67384
" />
<path d="M35668 67572
L35650 67590
L35593 67609
L35556 67609
L35500 67590
L35462 67553
L35443 67515
L35425 67440
L35425 67384
L35443 67309
L35462 67272
L35500 67234
L35556 67215
L35593 67215
L35650 67234
L35668 67253
" />
<path d="M35743 67647
L36043 67647
" />
<path d="M36137 67609
L36137 67215
" />
<path d="M36137 67365
L36175 67347
L36250 67347
L36287 67365
L36306 67384
L36324 67422
L36324 67534
L36306 67572
L36287 67590
L36250 67609
L36175 67609
L36137 67590
" />
<path d="M36662 67347
L36662 67609
" />
<path d="M36493 67347
L36493 67553
L36512 67590
L36549 67609
L36606 67609
L36643 67590
L36662 67572
" />
<path d="M36793 67347
L36943 67347
" />
<path d="M36849 67215
L36849 67553
L36868 67590
L36906 67609
L36943 67609
" />
<path d="M37018 67347
L37168 67347
" />
<path d="M37074 67215
L37074 67553
L37093 67590
L37131 67609
L37168 67609
" />
<path d="M37356 67609
L37318 67590
L37299 67572
L37281 67534
L37281 67422
L37299 67384
L37318 67365
L37356 67347
L37412 67347
L37449 67365
L37468 67384
L37487 67422
L37487 67534
L37468 67572
L37449 67590
L37412 67609
L37356 67609
" />
<path d="M37656 67347
L37656 67609
" />
<path d="M37656 67384
L37674 67365
L37712 67347
L37768 67347
L37806 67365
L37824 67403
L37824 67609
" />
<path d="M38218 67609
L37993 67609
" />
<path d="M38106 67609
L38106 67215
L38068 67272
L38031 67309
L37993 67328
" />
<g >
</g>
</g> 
</svg>
